<svg xmlns="http://www.w3.org/2000/svg" viewBox="0 0 236.69 236.69"><defs><style>.cls-1{fill:#7458ce;}.cls-2{fill:#f2f2f3;}.cls-3{fill:#c8cddc;}.cls-4,.cls-5,.cls-6,.cls-7{fill:none;stroke-miterlimit:10;}.cls-4{stroke:#384853;}.cls-4,.cls-5,.cls-6{stroke-width:13.45px;}.cls-5{stroke:#0bdfac;}.cls-6,.cls-7{stroke:#3f4753;}.cls-7{stroke-width:12.95px;}</style></defs><g id="Layer_2" data-name="Layer 2"><g id="Layer_1-2" data-name="Layer 1"><path class="cls-1" d="M184.08,131.81H91.36a46,46,0,0,1-46-46h77.94C147.51,99.84,170.12,116.86,184.08,131.81Z"/><path class="cls-2" d="M230.21,118.35a111.88,111.88,0,0,1-211.86,50.2h170c6.65,0,11.31-7.81,9.64-15.46-.11-.49-.25-1-.4-1.46-.05-.15-.11-.31-.16-.48-2-5.6-6.67-12.24-13.32-19.34-14-15-36.57-32-60.81-46C94.54,69.12,63.52,56.6,41.85,56.6H25.05a111.87,111.87,0,0,1,205.16,61.75Z"/><path class="cls-3" d="M188.32,168.55h-170a111.33,111.33,0,0,1-11.87-50.2,112.78,112.78,0,0,1,1.38-17.64c31.85,39.23,41.22,50.44,70.43,50.44H197.4c0,.17.11.33.16.48.15.49.29,1,.4,1.46C199.63,160.74,195,168.55,188.32,168.55Z"/><path class="cls-3" d="M197.4,151.15H78.29c-29.21,0-38.58-11.21-70.43-50.44A111.21,111.21,0,0,1,25.05,56.6h16.8c21.67,0,52.69,12.52,81.42,29.18H45.33a46,46,0,0,0,46,46h92.72C190.73,138.91,195.41,145.55,197.4,151.15Z"/><line class="cls-4" x1="197.96" y1="151.15" x2="197.4" y2="151.15"/><path class="cls-5" d="M7.86,100.71c31.84,39.22,41.22,50.45,70.43,50.45H198"/><path class="cls-6" d="M123.26,85.78H45.33a46,46,0,0,0,46,46h92.73"/><path class="cls-6" d="M25.05,56.6h16.8c21.68,0,52.69,12.52,81.41,29.18,24.25,14.06,46.86,31.09,60.83,46,6.83,7.3,11.59,14.1,13.47,19.82a13.59,13.59,0,0,1,.39,1.45c1.68,7.66-3,15.47-9.64,15.47h-170"/><circle class="cls-7" cx="118.35" cy="118.35" r="111.87"/></g></g></svg>