<svg width="40" height="40" viewBox="0 0 40 40" fill="none" xmlns="http://www.w3.org/2000/svg">
<g filter="url(#filter0_ii)">
<path d="M17.7861 38.7401C17.6821 39.5584 16.9656 40.1385 16.1969 39.9711C11.988 39.0546 8.17269 36.7281 5.32556 33.3417C4.80558 32.7233 4.92839 31.7811 5.55205 31.2798L6.7601 30.3087C7.38376 29.8074 8.27127 29.9381 8.80294 30.5455C10.9316 32.9771 13.713 34.6733 16.7771 35.4082C17.5425 35.5918 18.0913 36.3369 17.9874 37.1551L17.7861 38.7401Z" fill="#6366F1"/>
</g>
<g filter="url(#filter1_ii)">
<path d="M3.08938 27.8738C2.35184 28.2025 1.48365 27.8691 1.21024 27.1057C0.307775 24.5858 -0.0983284 21.9081 0.0200924 19.2229C0.160132 16.0474 1.02987 12.9479 2.56106 10.1674C4.09225 7.38691 6.24322 5.00118 8.84516 3.19742C11.0454 1.67212 13.5176 0.598083 16.1201 0.0309538C16.9085 -0.140863 17.65 0.42258 17.7641 1.22588L17.9852 2.78189C18.0993 3.58519 17.542 4.32273 16.7572 4.51043C14.8399 4.96892 13.0194 5.78154 11.3898 6.91121C9.35838 8.31945 7.67906 10.1821 6.48361 12.3529C5.28817 14.5237 4.60914 16.9436 4.49981 19.4227C4.4121 21.4115 4.69291 23.3949 5.32346 25.2729C5.58159 26.0417 5.25557 26.9081 4.51802 27.2369L3.08938 27.8738Z" fill="#6366F1"/>
</g>
<g filter="url(#filter2_ii)">
<path d="M24.8337 2.03128C25.0375 1.27093 25.8217 0.814815 26.566 1.07229C30.2876 2.35977 33.5563 4.72323 35.9476 7.87738C38.6268 11.4113 40.0522 15.7365 39.9985 20.17C39.9449 24.6036 38.4154 28.8931 35.6515 32.3612C33.1845 35.4567 29.8596 37.7405 26.108 38.9377C25.3577 39.1771 24.5848 38.7021 24.3994 37.9371L24.0403 36.4552C23.8549 35.6901 24.3281 34.926 25.0734 34.6716C27.8809 33.7132 30.3667 31.9699 32.2274 29.6352C34.3853 26.9275 35.5794 23.5786 35.6213 20.1172C35.6631 16.6557 34.5503 13.2789 32.4586 10.5199C30.6549 8.1409 28.212 6.33804 25.4285 5.31215C24.6895 5.0398 24.235 4.26444 24.4388 3.50409L24.8337 2.03128Z" fill="#6366F1"/>
</g>
<g opacity="0.4" filter="url(#filter3_ii)">
<path d="M20 33C12.8203 33 7 27.1797 7 20C7 12.8203 12.8203 7 20 7C27.1797 7 33 12.8203 33 20C33 27.1797 27.1797 33 20 33ZM20 10.8216C14.9309 10.8216 10.8216 14.9309 10.8216 20C10.8216 25.0691 14.9309 29.1784 20 29.1784C25.0691 29.1784 29.1784 25.0691 29.1784 20C29.1784 14.9309 25.0691 10.8216 20 10.8216Z" fill="#6366F1"/>
</g>
<g filter="url(#filter4_dii)">
<path fill-rule="evenodd" clip-rule="evenodd" d="M10.4338 25.8416C10.4486 27.0246 11.4302 27.9805 12.6261 27.9768L23.1983 27.9438C24.101 27.9409 24.902 27.3846 25.2084 26.5476L26.0486 24.2528C26.327 23.4922 26.1456 22.6373 25.58 22.0445L19.192 15.3493L27.8191 15.3223C29.015 15.3186 29.9725 14.3566 29.9576 13.1736C29.9428 11.9906 28.9612 11.0347 27.7653 11.0384L17.1931 11.0714C16.2904 11.0743 15.4894 11.6306 15.183 12.4676L14.3428 14.7624C14.0644 15.523 14.2458 16.3779 14.8114 16.9707L21.1994 23.6659L12.5723 23.6929C11.3763 23.6966 10.4189 24.6586 10.4338 25.8416Z" fill="white"/>
</g>
<defs>
<filter id="filter0_ii" x="5" y="28" width="13" height="15" filterUnits="userSpaceOnUse" color-interpolation-filters="sRGB">
<feFlood flood-opacity="0" result="BackgroundImageFix"/>
<feBlend mode="normal" in="SourceGraphic" in2="BackgroundImageFix" result="shape"/>
<feColorMatrix in="SourceAlpha" type="matrix" values="0 0 0 0 0 0 0 0 0 0 0 0 0 0 0 0 0 0 127 0" result="hardAlpha"/>
<feOffset dy="3"/>
<feGaussianBlur stdDeviation="3.5"/>
<feComposite in2="hardAlpha" operator="arithmetic" k2="-1" k3="1"/>
<feColorMatrix type="matrix" values="0 0 0 0 1 0 0 0 0 1 0 0 0 0 1 0 0 0 0.17 0"/>
<feBlend mode="normal" in2="shape" result="effect1_innerShadow"/>
<feColorMatrix in="SourceAlpha" type="matrix" values="0 0 0 0 0 0 0 0 0 0 0 0 0 0 0 0 0 0 127 0" result="hardAlpha"/>
<feOffset dy="-2"/>
<feGaussianBlur stdDeviation="2"/>
<feComposite in2="hardAlpha" operator="arithmetic" k2="-1" k3="1"/>
<feColorMatrix type="matrix" values="0 0 0 0 0.313636 0 0 0 0 1 0 0 0 0 1 0 0 0 0.33 0"/>
<feBlend mode="normal" in2="effect1_innerShadow" result="effect2_innerShadow"/>
</filter>
<filter id="filter1_ii" x="0" y="-2" width="18" height="33" filterUnits="userSpaceOnUse" color-interpolation-filters="sRGB">
<feFlood flood-opacity="0" result="BackgroundImageFix"/>
<feBlend mode="normal" in="SourceGraphic" in2="BackgroundImageFix" result="shape"/>
<feColorMatrix in="SourceAlpha" type="matrix" values="0 0 0 0 0 0 0 0 0 0 0 0 0 0 0 0 0 0 127 0" result="hardAlpha"/>
<feOffset dy="3"/>
<feGaussianBlur stdDeviation="3.5"/>
<feComposite in2="hardAlpha" operator="arithmetic" k2="-1" k3="1"/>
<feColorMatrix type="matrix" values="0 0 0 0 1 0 0 0 0 1 0 0 0 0 1 0 0 0 0.17 0"/>
<feBlend mode="normal" in2="shape" result="effect1_innerShadow"/>
<feColorMatrix in="SourceAlpha" type="matrix" values="0 0 0 0 0 0 0 0 0 0 0 0 0 0 0 0 0 0 127 0" result="hardAlpha"/>
<feOffset dy="-2"/>
<feGaussianBlur stdDeviation="2"/>
<feComposite in2="hardAlpha" operator="arithmetic" k2="-1" k3="1"/>
<feColorMatrix type="matrix" values="0 0 0 0 0.313636 0 0 0 0 1 0 0 0 0 1 0 0 0 0.33 0"/>
<feBlend mode="normal" in2="effect1_innerShadow" result="effect2_innerShadow"/>
</filter>
<filter id="filter2_ii" x="24" y="-1" width="16" height="43" filterUnits="userSpaceOnUse" color-interpolation-filters="sRGB">
<feFlood flood-opacity="0" result="BackgroundImageFix"/>
<feBlend mode="normal" in="SourceGraphic" in2="BackgroundImageFix" result="shape"/>
<feColorMatrix in="SourceAlpha" type="matrix" values="0 0 0 0 0 0 0 0 0 0 0 0 0 0 0 0 0 0 127 0" result="hardAlpha"/>
<feOffset dy="3"/>
<feGaussianBlur stdDeviation="3.5"/>
<feComposite in2="hardAlpha" operator="arithmetic" k2="-1" k3="1"/>
<feColorMatrix type="matrix" values="0 0 0 0 1 0 0 0 0 1 0 0 0 0 1 0 0 0 0.17 0"/>
<feBlend mode="normal" in2="shape" result="effect1_innerShadow"/>
<feColorMatrix in="SourceAlpha" type="matrix" values="0 0 0 0 0 0 0 0 0 0 0 0 0 0 0 0 0 0 127 0" result="hardAlpha"/>
<feOffset dy="-2"/>
<feGaussianBlur stdDeviation="2"/>
<feComposite in2="hardAlpha" operator="arithmetic" k2="-1" k3="1"/>
<feColorMatrix type="matrix" values="0 0 0 0 0.313636 0 0 0 0 1 0 0 0 0 1 0 0 0 0.33 0"/>
<feBlend mode="normal" in2="effect1_innerShadow" result="effect2_innerShadow"/>
</filter>
<filter id="filter3_ii" x="7" y="5" width="26" height="31" filterUnits="userSpaceOnUse" color-interpolation-filters="sRGB">
<feFlood flood-opacity="0" result="BackgroundImageFix"/>
<feBlend mode="normal" in="SourceGraphic" in2="BackgroundImageFix" result="shape"/>
<feColorMatrix in="SourceAlpha" type="matrix" values="0 0 0 0 0 0 0 0 0 0 0 0 0 0 0 0 0 0 127 0" result="hardAlpha"/>
<feOffset dy="3"/>
<feGaussianBlur stdDeviation="3.5"/>
<feComposite in2="hardAlpha" operator="arithmetic" k2="-1" k3="1"/>
<feColorMatrix type="matrix" values="0 0 0 0 1 0 0 0 0 1 0 0 0 0 1 0 0 0 0.17 0"/>
<feBlend mode="normal" in2="shape" result="effect1_innerShadow"/>
<feColorMatrix in="SourceAlpha" type="matrix" values="0 0 0 0 0 0 0 0 0 0 0 0 0 0 0 0 0 0 127 0" result="hardAlpha"/>
<feOffset dy="-2"/>
<feGaussianBlur stdDeviation="2"/>
<feComposite in2="hardAlpha" operator="arithmetic" k2="-1" k3="1"/>
<feColorMatrix type="matrix" values="0 0 0 0 0.313636 0 0 0 0 1 0 0 0 0 1 0 0 0 0.33 0"/>
<feBlend mode="normal" in2="effect1_innerShadow" result="effect2_innerShadow"/>
</filter>
<filter id="filter4_dii" x="2.43359" y="6.03845" width="35.5242" height="32.9384" filterUnits="userSpaceOnUse" color-interpolation-filters="sRGB">
<feFlood flood-opacity="0" result="BackgroundImageFix"/>
<feColorMatrix in="SourceAlpha" type="matrix" values="0 0 0 0 0 0 0 0 0 0 0 0 0 0 0 0 0 0 127 0" result="hardAlpha"/>
<feOffset dy="3"/>
<feGaussianBlur stdDeviation="4"/>
<feColorMatrix type="matrix" values="0 0 0 0 0 0 0 0 0 0 0 0 0 0 0 0 0 0 0.62 0"/>
<feBlend mode="normal" in2="BackgroundImageFix" result="effect1_dropShadow"/>
<feBlend mode="normal" in="SourceGraphic" in2="effect1_dropShadow" result="shape"/>
<feColorMatrix in="SourceAlpha" type="matrix" values="0 0 0 0 0 0 0 0 0 0 0 0 0 0 0 0 0 0 127 0" result="hardAlpha"/>
<feOffset dx="2" dy="4"/>
<feGaussianBlur stdDeviation="2"/>
<feComposite in2="hardAlpha" operator="arithmetic" k2="-1" k3="1"/>
<feColorMatrix type="matrix" values="0 0 0 0 1 0 0 0 0 1 0 0 0 0 1 0 0 0 0.36 0"/>
<feBlend mode="normal" in2="shape" result="effect2_innerShadow"/>
<feColorMatrix in="SourceAlpha" type="matrix" values="0 0 0 0 0 0 0 0 0 0 0 0 0 0 0 0 0 0 127 0" result="hardAlpha"/>
<feOffset dx="-2" dy="-2"/>
<feGaussianBlur stdDeviation="2"/>
<feComposite in2="hardAlpha" operator="arithmetic" k2="-1" k3="1"/>
<feColorMatrix type="matrix" values="0 0 0 0 0 0 0 0 0 0 0 0 0 0 0 0 0 0 0.25 0"/>
<feBlend mode="normal" in2="effect2_innerShadow" result="effect3_innerShadow"/>
</filter>
</defs>
</svg>
