<svg width="197" height="73" viewBox="0 0 197 73" fill="none" xmlns="http://www.w3.org/2000/svg">
<path d="M8 36.3262C8.05622 28.2802 11.2885 20.5821 16.9932 14.9079C22.6979 9.23357 30.4131 6.04249 38.4593 6.0293H40.6896V10.8723H38.4932C31.7253 10.8757 25.2327 13.5523 20.4287 18.3195C15.6248 23.0867 12.8984 29.5585 12.843 36.3262H8Z" fill="#8285F1"/>
<path d="M17.291 66.9711V62.128H19.5213C26.288 62.1202 32.7778 59.4403 37.5784 54.6713C42.379 49.9024 45.1019 43.4306 45.1545 36.6641H50.0009C49.9447 44.713 46.7101 52.4136 41.0017 58.0883C35.2934 63.7631 27.5738 66.9522 19.5247 66.9609L17.291 66.9711Z" fill="#8285F1"/>
<path d="M17.291 57.681V52.838H19.5213C23.825 52.8329 27.9534 51.1326 31.0124 48.1053C34.0714 45.078 35.8146 40.9675 35.8644 36.6641H40.7075C40.654 42.2499 38.399 47.5891 34.4323 51.5223C30.4656 55.4554 25.1074 57.6649 19.5213 57.6708L17.291 57.681Z" fill="#5254C7"/>
<path d="M17.2891 36.3265C17.3408 30.7362 19.5972 25.3924 23.5676 21.4568C27.5381 17.5212 32.9016 15.312 38.4921 15.3096H40.7224V20.1526H38.4921C34.1855 20.1532 30.0527 21.8515 26.9901 24.8793C23.9275 27.9071 22.182 32.0202 22.1321 36.3265H17.2891Z" fill="#5254C7"/>
<path d="M17.291 48.3917V43.5487H19.5213C21.3621 43.5475 23.1295 42.827 24.4466 41.541C25.7636 40.2549 26.5259 38.5051 26.571 36.6649V36.6649V36.4855C26.5772 33.3287 27.8366 30.3035 30.0723 28.0747C32.3081 25.846 35.3372 24.596 38.4941 24.5996H40.7244V29.4426H38.4941C36.6506 29.4403 34.8794 30.1591 33.5589 31.4454C32.2384 32.7318 31.4735 34.4836 31.4275 36.3265V36.3265V36.5058C31.4239 39.6604 30.169 42.6846 27.9381 44.9149C25.7072 47.1451 22.6826 48.3992 19.5281 48.4019L17.291 48.3917Z" fill="#383885"/>
<path d="M75.4035 31.4858H78.3666C78.2771 28.2244 75.3936 25.858 71.2572 25.858C67.1706 25.858 64.0385 28.1946 64.0385 31.7045C64.0385 34.5384 66.0669 36.1989 69.3382 37.0838L71.7444 37.7401C73.922 38.3168 75.6024 39.0327 75.6024 40.8423C75.6024 42.831 73.7032 44.1435 71.0882 44.1435C68.7217 44.1435 66.7529 43.0895 66.574 40.8722H63.4916C63.6904 44.5611 66.5441 46.8381 71.1081 46.8381C75.8907 46.8381 78.645 44.3224 78.645 40.8722C78.645 37.2031 75.3737 35.7812 72.7885 35.1449L70.7998 34.6278C69.2089 34.2202 67.091 33.4744 67.101 31.5256C67.101 29.7955 68.6819 28.5128 71.1876 28.5128C73.5243 28.5128 75.1848 29.6065 75.4035 31.4858ZM87.7111 46.8082C92.0165 46.8082 94.8304 43.6562 94.8304 38.9332C94.8304 34.1804 92.0165 31.0284 87.7111 31.0284C83.4057 31.0284 80.5918 34.1804 80.5918 38.9332C80.5918 43.6562 83.4057 46.8082 87.7111 46.8082ZM87.7211 44.3125C84.9071 44.3125 83.5946 41.8565 83.5946 38.9233C83.5946 36 84.9071 33.5142 87.7211 33.5142C90.5151 33.5142 91.8276 36 91.8276 38.9233C91.8276 41.8565 90.5151 44.3125 87.7211 44.3125ZM100.322 26.1364H97.349V46.5H100.322V26.1364ZM107.966 46.8381C110.492 46.8381 111.914 45.5554 112.48 44.4119H112.6V46.5H115.503V36.358C115.503 31.9134 112.003 31.0284 109.577 31.0284C106.813 31.0284 104.267 32.142 103.273 34.9261L106.067 35.5625C106.505 34.4787 107.618 33.4347 109.617 33.4347C111.536 33.4347 112.52 34.4389 112.52 36.169V36.2386C112.52 37.3224 111.407 37.3026 108.662 37.6207C105.769 37.9588 102.806 38.7145 102.806 42.1847C102.806 45.1875 105.063 46.8381 107.966 46.8381ZM108.613 44.4517C106.932 44.4517 105.719 43.696 105.719 42.2244C105.719 40.6335 107.131 40.0668 108.851 39.8381C109.816 39.7088 112.103 39.4503 112.53 39.0227V40.9915C112.53 42.8011 111.088 44.4517 108.613 44.4517ZM121.636 37.4318C121.636 34.9957 123.128 33.6037 125.196 33.6037C127.214 33.6037 128.437 34.9261 128.437 37.1435V46.5H131.41V36.7855C131.41 33.0071 129.332 31.0284 126.21 31.0284C123.913 31.0284 122.412 32.0923 121.706 33.7131H121.517V31.2273H118.663V46.5H121.636V37.4318ZM139.042 46.8381C141.568 46.8381 142.989 45.5554 143.556 44.4119H143.676V46.5H146.579V36.358C146.579 31.9134 143.079 31.0284 140.653 31.0284C137.889 31.0284 135.343 32.142 134.349 34.9261L137.143 35.5625C137.58 34.4787 138.694 33.4347 140.693 33.4347C142.612 33.4347 143.596 34.4389 143.596 36.169V36.2386C143.596 37.3224 142.482 37.3026 139.738 37.6207C136.845 37.9588 133.882 38.7145 133.882 42.1847C133.882 45.1875 136.139 46.8381 139.042 46.8381ZM139.688 44.4517C138.008 44.4517 136.795 43.696 136.795 42.2244C136.795 40.6335 138.207 40.0668 139.927 39.8381C140.891 39.7088 143.178 39.4503 143.606 39.0227V40.9915C143.606 42.8011 142.164 44.4517 139.688 44.4517ZM149.51 46.5H153.816V38.0881H162.098V34.5384H153.816V29.6861H162.993V26.1364H149.51V46.5ZM165.089 26.1364V46.5H169.265V33.196H169.434L174.704 46.4006H177.548L182.818 33.2457H182.987V46.5H187.163V26.1364H181.853L176.245 39.8182H176.007L170.399 26.1364H165.089Z" fill="#383885"/>
</svg>
